<svg id="visual" viewBox="0 0 900 600" width="900" height="600" xmlns="http://www.w3.org/2000/svg" xmlns:xlink="http://www.w3.org/1999/xlink" version="1.1"><rect x="0" y="0" width="900" height="600" fill="#001220"></rect><defs><linearGradient id="grad1_0" x1="33.3%" y1="0%" x2="100%" y2="100%"><stop offset="20%" stop-color="#001220" stop-opacity="1"></stop><stop offset="80%" stop-color="#001220" stop-opacity="1"></stop></linearGradient></defs><defs><linearGradient id="grad2_0" x1="0%" y1="0%" x2="66.7%" y2="100%"><stop offset="20%" stop-color="#001220" stop-opacity="1"></stop><stop offset="80%" stop-color="#001220" stop-opacity="1"></stop></linearGradient></defs><g transform="translate(900, 0)"><path d="M0 378.6C-42.6 356.2 -85.2 333.9 -132 318.7C-178.8 303.6 -229.9 295.7 -267.7 267.7C-305.5 239.7 -330.2 191.5 -346.5 143.5C-362.7 95.5 -370.7 47.8 -378.6 0L0 0Z" fill="#FBAE3C"></path></g><g transform="translate(0, 600)"><path d="M0 -378.6C28.6 -319.3 57.2 -259.9 101.8 -245.8C146.4 -231.6 206.9 -262.6 253.1 -253.1C299.4 -243.7 331.2 -193.8 349.8 -144.9C368.3 -95.9 373.4 -48 378.6 0L0 0Z" fill="#FBAE3C"></path></g></svg>